<?xml version="1.0" standalone="no"?>
<!DOCTYPE svg PUBLIC "-//W3C//DTD SVG 20010904//EN"
 "http://www.w3.org/TR/2001/REC-SVG-20010904/DTD/svg10.dtd">
<svg version="1.0" xmlns="http://www.w3.org/2000/svg"
 width="273.000000pt" height="265.000000pt" viewBox="0 0 273.000000 265.000000"
 preserveAspectRatio="xMidYMid meet">
<metadata>
Created by potrace 1.10, written by Peter Selinger 2001-2011
</metadata>
<g transform="translate(0.000000,265.000000) scale(0.100000,-0.100000)"
fill="#000000" stroke="none">
<path d="M591 2304 c-126 -34 -220 -137 -240 -264 -5 -29 -8 -182 -7 -341 l1
-289 -63 0 c-54 0 -66 -4 -88 -26 -20 -19 -24 -31 -19 -52 12 -49 23 -52 243
-52 234 0 261 -7 262 -67 0 -46 -30 -53 -220 -53 -124 0 -180 -4 -188 -12 -16
-16 -15 -73 1 -86 8 -7 95 -12 235 -14 l222 -3 0 315 0 316 68 33 c37 18 184
93 326 168 l259 135 317 -156 c175 -86 321 -156 325 -156 5 0 23 -11 42 -26
l33 -25 0 -359 c0 -234 -4 -367 -11 -383 -6 -12 -20 -29 -32 -37 -47 -29 -615
-317 -638 -323 -17 -5 -56 8 -134 43 -284 127 -396 179 -410 190 -35 29 -7 90
41 90 13 0 115 -40 225 -90 111 -49 203 -90 205 -90 2 0 4 134 4 298 l0 297
-138 72 c-75 40 -188 100 -249 133 l-113 61 0 -253 0 -253 51 0 c41 0 55 -5
70 -24 25 -30 24 -53 -2 -77 -20 -18 -42 -19 -323 -22 l-303 -3 -2 -143 c-1
-79 3 -173 9 -208 22 -122 99 -217 206 -258 53 -19 75 -20 814 -20 739 0 761
1 814 20 69 26 134 83 171 151 l30 54 3 766 c2 753 2 768 -18 822 -29 77 -87
140 -168 179 l-67 33 -745 2 c-630 2 -753 0 -799 -13z"/>
<path d="M1156 1764 l-228 -115 38 -21 c22 -11 86 -46 144 -78 58 -31 152 -82
210 -113 l106 -56 94 51 c52 28 157 83 233 123 l138 72 -250 127 c-138 69
-252 126 -253 125 -2 0 -106 -52 -232 -115z"/>
<path d="M1835 1462 c-71 -37 -183 -97 -247 -132 l-117 -65 -1 -277 c0 -153 3
-278 6 -278 3 0 118 57 255 126 l249 126 0 284 c0 156 -3 284 -7 284 -5 0 -66
-31 -138 -68z"/>
</g>
</svg>
